<mxfile host="app.diagrams.net" modified="2023-09-07T16:55:49.345Z" agent="Mozilla/5.0 (Macintosh; Intel Mac OS X 10_15_7) AppleWebKit/605.1.15 (KHTML, like Gecko) Version/16.6 Safari/605.1.15" version="21.7.2" etag="sCW8Cfeb4T9k19Y2pj8f" type="github">
  <diagram name="Page-1" id="ZqUw15ghLxrdN4S6zym3">
    <mxGraphModel>
      <root>
        <mxCell id="0" />
        <mxCell id="1" parent="0" />
      </root>
    </mxGraphModel>
  </diagram>
</mxfile>
